<svg width="20" height="20" viewBox="0 0 20 20" fill="none" xmlns="http://www.w3.org/2000/svg">
<path d="M3.81227 3.81252C4.04668 3.57818 4.36457 3.44653 4.69602 3.44653C5.02748 3.44653 5.34536 3.57818 5.57977 3.81252L9.99977 8.23252L14.4198 3.81252C14.6555 3.58482 14.9713 3.45883 15.299 3.46167C15.6268 3.46452 15.9403 3.59598 16.172 3.82774C16.4038 4.0595 16.5353 4.37302 16.5381 4.70076C16.541 5.02851 16.415 5.34426 16.1873 5.58002L11.7673 10L16.1873 14.42C16.415 14.6558 16.541 14.9715 16.5381 15.2993C16.5353 15.627 16.4038 15.9405 16.172 16.1723C15.9403 16.404 15.6268 16.5355 15.299 16.5384C14.9713 16.5412 14.6555 16.4152 14.4198 16.1875L9.99977 11.7675L5.57977 16.1875C5.34402 16.4152 5.02827 16.5412 4.70052 16.5384C4.37277 16.5355 4.05926 16.404 3.8275 16.1723C3.59574 15.9405 3.46428 15.627 3.46143 15.2993C3.45858 14.9715 3.58457 14.6558 3.81227 14.42L8.23227 10L3.81227 5.58002C3.57793 5.34561 3.44629 5.02772 3.44629 4.69627C3.44629 4.36481 3.57793 4.04693 3.81227 3.81252Z" fill="#333333"/>
</svg>
