<svg width="30" height="30" viewBox="0 0 30 30" fill="none" xmlns="http://www.w3.org/2000/svg">
<path d="M6.6002 9.90039C6.10314 9.90039 5.7002 10.3033 5.7002 10.8004C5.7002 11.2974 6.10314 11.7004 6.6002 11.7004V9.90039ZM23.4002 11.7004C23.8972 11.7004 24.3002 11.2974 24.3002 10.8004C24.3002 10.3033 23.8972 9.90039 23.4002 9.90039V11.7004ZM6.6002 14.7004C6.10314 14.7004 5.7002 15.1034 5.7002 15.6004C5.7002 16.0974 6.10314 16.5004 6.6002 16.5004V14.7004ZM21.0002 16.5004C21.4972 16.5004 21.9002 16.0974 21.9002 15.6004C21.9002 15.1034 21.4972 14.7004 21.0002 14.7004V16.5004ZM6.6002 19.5004C6.10314 19.5004 5.7002 19.9033 5.7002 20.4004C5.7002 20.8974 6.10314 21.3004 6.6002 21.3004V19.5004ZM15.0002 21.3004C15.4972 21.3004 15.9002 20.8974 15.9002 20.4004C15.9002 19.9033 15.4972 19.5004 15.0002 19.5004V21.3004ZM6.6002 11.7004H23.4002V9.90039H6.6002V11.7004ZM6.6002 16.5004H21.0002V14.7004H6.6002V16.5004ZM6.6002 21.3004H15.0002V19.5004H6.6002V21.3004Z" fill="#333333"/>
</svg>
